<svg version="1.1" id="Layer_1" xmlns="http://www.w3.org/2000/svg" xmlns:xlink="http://www.w3.org/1999/xlink" x="0px" y="0px"
	 width="100%" viewBox="0 0 625 625" enable-background="new 0 0 625 625" xml:space="preserve">
<path fill="#FEFFFF" opacity="1.000000" stroke="none" 
	d="
M626.000000,233.000000 
	C626.000000,364.333282 626.000000,495.166534 626.000000,625.999878 
	C417.666809,625.999878 209.333618,625.999878 1.000319,625.999939 
	C1.000212,417.666901 1.000212,209.333786 1.000106,1.000514 
	C209.333008,1.000343 417.666016,1.000343 625.999512,1.000171 
	C626.000000,78.166664 626.000000,155.333328 626.000000,233.000000 
M365.285278,33.944073 
	C364.253693,33.765179 363.222107,33.586285 361.829102,33.191864 
	C361.549316,33.106129 361.272705,33.115383 360.179474,32.991707 
	C354.134338,32.295856 348.089172,31.600004 341.440674,30.567001 
	C336.574646,30.169096 331.697052,29.328577 326.844696,29.454931 
	C311.281311,29.860207 295.727264,30.623127 279.246979,31.178211 
	C269.237854,32.913116 259.035858,33.916046 249.249222,36.495163 
	C140.845932,65.063164 70.401436,133.062576 38.758129,240.683990 
	C34.919476,253.739532 33.617306,267.540863 30.949697,281.863525 
	C28.054270,306.698059 28.438551,331.465759 32.514313,357.032043 
	C35.952808,379.465851 41.693020,401.252716 50.965240,422.812622 
	C51.333603,423.733612 51.675575,424.666199 52.074211,425.573883 
	C60.883251,445.631805 71.237038,464.794891 84.948807,482.623108 
	C85.431038,483.174561 85.913269,483.725983 86.636192,484.782990 
	C87.004883,485.192596 87.373573,485.602203 87.981071,486.667847 
	C96.680656,496.386322 105.380234,506.104767 114.306129,516.333191 
	C114.610794,516.535339 114.915451,516.737488 115.408318,517.445862 
	C115.959145,517.888184 116.509979,518.330566 117.400589,519.358948 
	C119.817719,521.612671 122.052650,524.109863 124.683174,526.078491 
	C136.779831,535.131531 148.986908,544.037048 161.286072,553.656860 
	C162.517380,554.069153 163.748688,554.481445 165.397079,555.175110 
	C165.559860,555.215515 165.722626,555.255920 165.869431,555.990845 
	C166.311081,556.448120 166.678268,557.030090 167.205093,557.344727 
	C187.536621,569.486328 208.895813,579.298523 232.388367,586.004822 
	C266.578308,596.203125 301.421722,600.048035 337.558136,596.867676 
	C338.105774,596.755920 338.653381,596.644104 339.819611,596.600586 
	C340.210449,596.474426 340.601288,596.348267 341.902588,596.311035 
	C353.398376,594.511536 365.041962,593.366943 376.367035,590.811035 
	C487.632690,565.699219 573.721924,476.081848 593.695129,362.287476 
	C594.333801,358.648499 593.947388,354.829651 594.694519,350.693115 
	C595.082520,349.839935 595.723328,349.014740 595.821472,348.129456 
	C598.301147,325.757172 598.958435,303.378754 595.946411,280.175354 
	C595.102234,275.895874 594.311340,271.605103 593.403564,267.339172 
	C590.895508,255.552704 588.338562,243.776642 585.803833,231.250275 
	C583.483582,224.487152 581.404480,217.629532 578.798279,210.978439 
	C570.580383,190.005508 560.509033,169.998077 546.952393,151.134323 
	C536.279907,138.468002 525.607361,125.801674 514.646851,112.528954 
	C499.825348,97.915176 484.054932,84.492088 465.695374,73.272888 
	C453.398193,66.663475 441.273499,59.700699 428.737518,53.580406 
	C421.500824,50.047325 413.600128,47.874245 405.301483,44.786358 
	C393.866913,41.567924 382.432343,38.349491 370.345886,34.906597 
	C369.445862,34.880325 368.545868,34.854053 367.265259,34.323902 
	C366.855133,34.277008 366.444977,34.230110 365.285278,33.944073 
z"/>
<path fill="#1CB5B9" opacity="1.000000" stroke="none" 
	d="
M594.038818,351.094635 
	C593.947388,354.829651 594.333801,358.648499 593.695129,362.287476 
	C573.721924,476.081848 487.632690,565.699219 376.367035,590.811035 
	C365.041962,593.366943 353.398376,594.511536 341.491150,595.900879 
	C342.736359,594.256226 344.573700,593.202637 346.019958,591.757629 
	C354.618378,583.166870 363.121002,574.480469 371.667480,565.837585 
	C374.755249,562.714966 378.045593,559.771179 380.907227,556.455505 
	C382.294830,554.847717 382.906403,552.570129 384.076172,550.367798 
	C385.084808,550.026489 385.886566,549.913208 386.824829,550.135803 
	C387.962830,550.836121 388.964264,551.200562 389.965729,551.565002 
	C390.013458,551.121826 390.061157,550.678711 390.108887,550.235596 
	C388.988068,550.078491 387.867279,549.921387 386.985291,549.488525 
	C442.167755,531.425781 485.940948,498.702759 518.506042,451.004517 
	C531.814514,431.511597 541.537781,410.270386 549.363037,388.202271 
	C549.929749,389.073547 550.274536,389.743439 550.114868,389.433228 
	C563.078674,376.460602 576.107971,363.367645 589.227051,350.365326 
	C590.835144,348.771515 592.937500,347.580048 594.038818,351.094635 
z"/>
<path fill="#07BDF1" opacity="1.000000" stroke="none" 
	d="
M31.139585,280.996552 
	C33.617306,267.540863 34.919476,253.739532 38.758129,240.683990 
	C70.401436,133.062576 140.845932,65.063164 249.249222,36.495163 
	C259.035858,33.916046 269.237854,32.913116 279.639008,31.611977 
	C277.493134,35.040741 275.161804,38.244957 272.379578,40.992554 
	C263.039276,50.216644 253.368607,59.113056 244.221710,68.521194 
	C242.025009,70.780640 241.363510,74.532631 239.648987,77.767273 
	C181.377625,96.890816 136.094635,132.098770 103.532059,183.621246 
	C92.002625,201.863800 83.640282,221.570587 76.634842,241.800995 
	C73.245209,238.679398 71.699081,241.915512 70.096924,243.494003 
	C58.620052,254.801163 47.289127,266.256317 35.843979,277.595978 
	C34.485905,278.941528 32.717686,279.873108 31.139585,280.996552 
M235.202530,75.608490 
	C235.206726,75.213974 235.210922,74.819450 235.215134,74.424934 
	C235.051392,74.423424 234.745316,74.410919 234.744476,74.421982 
	C234.714157,74.814552 234.712494,75.209343 235.202530,75.608490 
z"/>
<path fill="#19B6C0" opacity="1.000000" stroke="none" 
	d="
M383.869324,550.595703 
	C382.906403,552.570129 382.294830,554.847717 380.907227,556.455505 
	C378.045593,559.771179 374.755249,562.714966 371.667480,565.837585 
	C363.121002,574.480469 354.618378,583.166870 346.019958,591.757629 
	C344.573700,593.202637 342.736359,594.256226 341.035950,595.856384 
	C340.601288,596.348267 340.210449,596.474426 339.385010,596.273438 
	C338.299713,596.218872 337.649048,596.491516 336.998352,596.764160 
	C301.421722,600.048035 266.578308,596.203125 232.134460,585.440186 
	C232.542725,583.653625 232.893997,581.973755 233.915085,581.280701 
	C244.302185,574.230469 252.018326,564.703064 259.550873,554.634644 
	C261.606293,554.986206 263.243134,555.277832 264.875244,555.593933 
	C291.388306,560.728516 318.078430,562.015808 344.823914,558.161926 
	C357.930328,556.273315 370.859772,553.156555 383.869324,550.595703 
z"/>
<path fill="#0ABCEA" opacity="1.000000" stroke="none" 
	d="
M31.044643,281.430054 
	C32.717686,279.873108 34.485905,278.941528 35.843979,277.595978 
	C47.289127,266.256317 58.620052,254.801163 70.096924,243.494003 
	C71.699081,241.915512 73.245209,238.679398 76.654358,242.170120 
	C73.884148,258.564789 69.691872,274.278595 68.138878,290.249054 
	C66.604202,306.031067 67.736420,322.072388 67.367592,338.005951 
	C65.882858,338.149292 64.729271,338.286621 63.187096,338.470245 
	C64.329315,336.877777 65.122894,335.771362 66.373344,334.027985 
	C64.226089,333.390167 62.757610,332.953949 61.289139,332.517731 
	C61.079720,333.841370 60.823189,335.159607 60.670444,336.489746 
	C60.329884,339.455536 58.931366,341.099121 55.755226,340.378357 
	C53.064316,339.767700 51.882622,340.751648 52.302227,343.464722 
	C52.917274,347.441498 51.359921,348.884613 47.347328,348.376678 
	C46.373898,348.253448 44.179829,349.899658 44.278149,350.371582 
	C45.616116,356.793793 42.111717,356.912079 37.448471,356.063721 
	C35.845963,355.772156 34.129086,356.109253 32.464455,356.159180 
	C28.438551,331.465759 28.054270,306.698059 31.044643,281.430054 
z"/>
<path fill="#15B7CB" opacity="1.000000" stroke="none" 
	d="
M259.130096,554.586121 
	C252.018326,564.703064 244.302185,574.230469 233.915085,581.280701 
	C232.893997,581.973755 232.542725,583.653625 231.810226,585.303284 
	C208.895813,579.298523 187.536621,569.486328 167.205093,557.344727 
	C166.678268,557.030090 166.311081,556.448120 165.906677,555.259277 
	C165.071640,551.620178 165.710922,549.434937 168.118958,547.241638 
	C173.231720,542.584900 177.952484,537.499573 182.882294,532.639038 
	C184.856506,530.692505 186.958008,528.875000 189.343842,527.077026 
	C211.492157,539.696167 234.709106,548.665222 259.130096,554.586121 
z"/>
<path fill="#15B7CB" opacity="1.000000" stroke="none" 
	d="
M547.106445,151.788391 
	C560.509033,169.998077 570.580383,190.005508 578.798279,210.978439 
	C581.404480,217.629532 583.483582,224.487152 585.467529,231.551376 
	C584.476990,230.942184 583.813965,230.038086 583.170227,229.120544 
	C579.590515,224.018646 577.726868,224.058014 573.979004,228.935364 
	C572.068848,231.421204 569.726562,233.572769 567.606140,235.899658 
	C562.718811,241.262756 557.847656,246.640640 552.731567,251.725037 
	C546.798645,229.470901 538.076172,208.746597 527.182251,188.797379 
	C527.595276,186.327057 527.714905,184.092987 527.829834,181.947647 
	C528.442688,181.625641 529.422241,181.365509 530.040649,180.745270 
	C534.499512,176.273010 538.759827,171.595520 543.338684,167.252594 
	C546.359985,164.387009 548.850891,161.745544 547.102173,157.085693 
	C546.521484,155.538406 547.072693,153.566284 547.106445,151.788391 
z"/>
<path fill="#1AB5BE" opacity="1.000000" stroke="none" 
	d="
M594.366699,350.893860 
	C592.937500,347.580048 590.835144,348.771515 589.227051,350.365326 
	C576.107971,363.367645 563.078674,376.460602 550.114868,389.433228 
	C550.274536,389.743439 549.929749,389.073547 549.360901,387.829285 
	C550.771362,381.221069 552.539062,375.219666 554.015625,369.147400 
	C558.579895,350.377258 560.149902,331.254669 560.844055,311.998230 
	C562.867798,311.093170 564.824524,310.493073 566.165649,309.236176 
	C576.129944,299.897980 585.972046,290.429443 595.852417,281.001770 
	C598.958435,303.378754 598.301147,325.757172 595.821472,348.129456 
	C595.723328,349.014740 595.082520,349.839935 594.366699,350.893860 
z"/>
<path fill="#0DBADF" opacity="1.000000" stroke="none" 
	d="
M405.998291,45.089043 
	C413.600128,47.874245 421.500824,50.047325 428.737518,53.580406 
	C441.273499,59.700699 453.398193,66.663475 465.731323,73.916054 
	C465.216827,76.770142 465.359436,79.639313 463.994385,81.076584 
	C458.464355,86.899132 452.470612,92.281311 446.613647,97.858650 
	C442.714264,94.857422 440.318359,97.188530 437.651428,99.795486 
	C435.146088,97.890350 432.986755,95.996483 431.115906,93.890297 
	C430.957489,92.515511 430.510559,91.353043 430.063660,90.190567 
	C428.666809,91.233192 427.269989,92.275826 425.514343,93.237503 
	C409.765717,87.120529 394.375946,81.084526 379.210510,74.766220 
	C380.142395,74.091492 381.356567,73.818520 381.481476,73.288750 
	C383.326569,65.462486 390.465240,62.135540 395.277924,56.849331 
	C398.848938,52.927021 402.424683,49.008984 405.998291,45.089043 
M452.467743,72.348953 
	C453.037476,72.817200 453.607208,73.285439 454.176941,73.753685 
	C454.484100,73.517342 454.791260,73.280991 455.098419,73.044640 
	C454.523865,72.142899 453.949310,71.241158 453.374786,70.339401 
	C452.911407,70.883415 452.448059,71.427422 452.467743,72.348953 
z"/>
<path fill="#0CBBE4" opacity="1.000000" stroke="none" 
	d="
M32.489384,356.595612 
	C34.129086,356.109253 35.845963,355.772156 37.448471,356.063721 
	C42.111717,356.912079 45.616116,356.793793 44.278149,350.371582 
	C44.179829,349.899658 46.373898,348.253448 47.347328,348.376678 
	C51.359921,348.884613 52.917274,347.441498 52.302227,343.464722 
	C51.882622,340.751648 53.064316,339.767700 55.755226,340.378357 
	C58.931366,341.099121 60.329884,339.455536 60.670444,336.489746 
	C60.823189,335.159607 61.079720,333.841370 61.289139,332.517731 
	C62.757610,332.953949 64.226089,333.390167 66.373344,334.027985 
	C65.122894,335.771362 64.329315,336.877777 63.187096,338.470245 
	C64.729271,338.286621 65.882858,338.149292 67.470810,338.424225 
	C69.785965,349.754333 71.393829,360.728546 73.634674,371.571960 
	C75.400490,380.116699 77.946136,388.500305 79.762527,396.975037 
	C73.946465,398.292206 71.841560,402.138794 71.720795,407.905731 
	C66.076805,407.376160 64.173622,410.930084 63.776882,414.080750 
	C60.088684,416.593475 57.395164,418.428558 54.701645,420.263641 
	C54.946423,420.595245 55.191196,420.926849 55.435974,421.258453 
	C53.891224,421.536560 52.346474,421.814667 50.801720,422.092743 
	C41.693020,401.252716 35.952808,379.465851 32.489384,356.595612 
M77.410774,393.482910 
	C77.410774,393.482910 77.522766,393.415680 77.410774,393.482910 
z"/>
<path fill="#09BCEB" opacity="1.000000" stroke="none" 
	d="
M239.995972,77.598206 
	C241.363510,74.532631 242.025009,70.780640 244.221710,68.521194 
	C253.368607,59.113056 263.039276,50.216644 272.379578,40.992554 
	C275.161804,38.244957 277.493134,35.040741 280.100342,31.646896 
	C295.727264,30.623127 311.281311,29.860207 326.844696,29.454931 
	C331.697052,29.328577 336.574646,30.169096 341.593262,31.050034 
	C340.868561,33.152878 339.991302,34.772690 339.114014,36.392502 
	C338.632904,35.671543 338.151794,34.950584 337.670685,34.229626 
	C331.670502,33.192753 325.956299,29.551495 320.383667,33.468891 
	C319.051819,36.149845 317.719940,38.830795 316.392761,41.507973 
	C321.247650,44.322994 322.007935,43.809937 323.689209,36.515335 
	C326.973267,36.515335 330.255524,36.515335 333.537781,36.515335 
	C333.805756,36.957397 334.073700,37.399464 334.341675,37.841526 
	C328.409027,43.466640 322.405884,49.019886 316.571259,54.744873 
	C313.264343,57.989609 308.684875,60.658123 309.587463,66.636307 
	C307.764374,66.706917 306.353363,66.674332 304.847412,66.530533 
	C304.448822,66.283806 304.214539,66.373123 303.595520,66.779579 
	C281.611176,67.611580 260.633026,71.600899 239.995972,77.598206 
z"/>
<path fill="#12B8D2" opacity="1.000000" stroke="none" 
	d="
M189.001572,526.998779 
	C186.958008,528.875000 184.856506,530.692505 182.882294,532.639038 
	C177.952484,537.499573 173.231720,542.584900 168.118958,547.241638 
	C165.710922,549.434937 165.071640,551.620178 165.914642,554.912048 
	C165.722626,555.255920 165.559860,555.215515 165.029449,554.748413 
	C163.492676,553.879639 162.323532,553.437561 161.154388,552.995483 
	C148.986908,544.037048 136.779831,535.131531 124.683174,526.078491 
	C122.052650,524.109863 119.817719,521.612671 117.169418,518.784668 
	C116.365532,517.786804 115.792809,517.363220 115.220108,516.939636 
	C114.915451,516.737488 114.610794,516.535339 114.326279,515.820923 
	C115.366669,514.994385 116.386917,514.680176 117.171341,514.438538 
	C117.515953,512.768494 117.307884,510.628510 118.277878,509.604462 
	C123.288780,504.314362 128.502579,499.203125 133.856003,494.257233 
	C136.069366,492.212341 138.640015,488.776459 141.694275,493.531860 
	C142.194443,493.206238 142.694611,492.880615 143.507645,492.701080 
	C147.936752,496.474854 151.854614,500.363495 156.210983,503.675323 
	C165.012909,510.366699 174.052979,516.744812 182.985046,523.597778 
	C182.149200,525.072449 181.323135,526.201416 180.497070,527.330444 
	C180.854187,527.674377 181.211304,528.018311 181.568420,528.362244 
	C182.754120,527.144592 183.939819,525.926941 185.375519,524.791199 
	C185.761642,524.983643 185.897797,525.094238 186.173584,525.394287 
	C186.556335,525.802979 186.841248,525.924011 187.448975,525.968384 
	C188.153900,526.326294 188.577728,526.662537 189.001572,526.998779 
M140.588501,495.516968 
	C140.588501,495.516968 140.476868,495.583710 140.588501,495.516968 
z"/>
<path fill="#18B6C4" opacity="1.000000" stroke="none" 
	d="
M595.899414,280.588562 
	C585.972046,290.429443 576.129944,299.897980 566.165649,309.236176 
	C564.824524,310.493073 562.867798,311.093170 560.735474,311.541077 
	C560.000977,304.955139 560.188232,298.762390 559.359497,292.708740 
	C557.497375,279.106689 555.131042,265.573639 552.969971,252.012512 
	C557.847656,246.640640 562.718811,241.262756 567.606140,235.899658 
	C569.726562,233.572769 572.068848,231.421204 573.979004,228.935364 
	C577.726868,224.058014 579.590515,224.018646 583.170227,229.120544 
	C583.813965,230.038086 584.476990,230.942184 585.466064,231.924469 
	C588.338562,243.776642 590.895508,255.552704 593.403564,267.339172 
	C594.311340,271.605103 595.102234,275.895874 595.899414,280.588562 
z"/>
<path fill="#0FBADD" opacity="1.000000" stroke="none" 
	d="
M50.883484,422.452698 
	C52.346474,421.814667 53.891224,421.536560 55.435974,421.258453 
	C55.191196,420.926849 54.946423,420.595245 54.701645,420.263641 
	C57.395164,418.428558 60.088684,416.593475 63.776882,414.080750 
	C64.173622,410.930084 66.076805,407.376160 71.720795,407.905731 
	C71.841560,402.138794 73.946465,398.292206 80.090256,397.106323 
	C88.848373,417.565308 98.699486,436.972961 110.799438,455.415375 
	C109.147751,455.585754 106.833855,456.010437 106.326736,455.242310 
	C104.208786,452.034210 102.493736,452.950287 100.405807,455.073090 
	C95.989090,459.563538 91.664948,464.164093 86.999069,468.383606 
	C83.976860,471.116638 83.382896,473.735138 85.892906,476.872803 
	C87.716217,479.151978 87.184479,480.750763 84.832161,482.078430 
	C71.237038,464.794891 60.883251,445.631805 52.074211,425.573883 
	C51.675575,424.666199 51.333603,423.733612 50.883484,422.452698 
M55.261974,423.815613 
	C55.376240,423.973022 55.490505,424.130402 55.604774,424.287811 
	C55.581673,424.068848 55.558575,423.849915 55.261974,423.815613 
z"/>
<path fill="#10BAD9" opacity="1.000000" stroke="none" 
	d="
M437.997467,99.806763 
	C440.318359,97.188530 442.714264,94.857422 446.613647,97.858650 
	C452.470612,92.281311 458.464355,86.899132 463.994385,81.076584 
	C465.359436,79.639313 465.216827,76.770142 465.926422,74.193726 
	C484.054932,84.492088 499.825348,97.915176 514.635559,113.122475 
	C510.973755,116.753082 507.076538,119.543037 503.729645,122.884247 
	C498.501648,128.103363 493.646454,133.695847 488.347778,138.985260 
	C472.991425,123.754631 455.933960,111.216949 437.997467,99.806763 
z"/>
<path fill="#12B8D2" opacity="1.000000" stroke="none" 
	d="
M488.633301,139.130142 
	C493.646454,133.695847 498.501648,128.103363 503.729645,122.884247 
	C507.076538,119.543037 510.973755,116.753082 514.779541,113.425674 
	C525.607361,125.801674 536.279907,138.468002 547.029419,151.461365 
	C547.072693,153.566284 546.521484,155.538406 547.102173,157.085693 
	C548.850891,161.745544 546.359985,164.387009 543.338684,167.252594 
	C538.759827,171.595520 534.499512,176.273010 530.040649,180.745270 
	C529.422241,181.365509 528.442688,181.625641 527.829834,181.947647 
	C527.714905,184.092987 527.595276,186.327057 526.874695,188.641968 
	C524.366638,185.484543 522.794250,181.983658 520.495056,179.053009 
	C509.985931,165.657928 499.273010,152.422760 488.633301,139.130142 
z"/>
<path fill="#11B9D8" opacity="1.000000" stroke="none" 
	d="
M84.890488,482.350769 
	C87.184479,480.750763 87.716217,479.151978 85.892906,476.872803 
	C83.382896,473.735138 83.976860,471.116638 86.999069,468.383606 
	C91.664948,464.164093 95.989090,459.563538 100.405807,455.073090 
	C102.493736,452.950287 104.208786,452.034210 106.326736,455.242310 
	C106.833855,456.010437 109.147751,455.585754 111.075699,455.611115 
	C113.132797,457.928314 114.494461,460.565308 116.399750,462.722046 
	C125.248970,472.739197 134.248840,482.623260 143.194794,492.554993 
	C142.694611,492.880615 142.194443,493.206238 141.694275,493.531860 
	C138.640015,488.776459 136.069366,492.212341 133.856003,494.257233 
	C128.502579,499.203125 123.288780,504.314362 118.277878,509.604462 
	C117.307884,510.628510 117.515953,512.768494 117.171341,514.438538 
	C116.386917,514.680176 115.366669,514.994385 114.213120,515.565918 
	C105.380234,506.104767 96.680656,496.386322 88.242081,486.337921 
	C89.854561,486.162323 91.206017,486.316650 93.755234,486.607788 
	C91.848938,484.147858 90.643486,482.592285 89.370270,480.949310 
	C88.077293,482.395874 87.236397,483.336639 86.395500,484.277435 
	C85.913269,483.725983 85.431038,483.174561 84.890488,482.350769 
z"/>
<path fill="#0CBCE6" opacity="1.000000" stroke="none" 
	d="
M405.649902,44.937698 
	C402.424683,49.008984 398.848938,52.927021 395.277924,56.849331 
	C390.465240,62.135540 383.326569,65.462486 381.481476,73.288750 
	C381.356567,73.818520 380.142395,74.091492 378.861603,74.779114 
	C377.842560,74.952042 377.396729,74.829765 376.763611,74.523987 
	C376.236786,74.266739 375.897339,74.192993 375.165833,74.133247 
	C361.848602,71.930771 348.923431,69.714302 336.276611,67.335930 
	C340.387085,62.211094 349.315430,62.961056 350.404327,54.847458 
	C350.450684,54.501820 351.462555,54.141212 352.067139,54.039055 
	C355.394684,53.476776 357.277069,51.575497 358.061188,48.287422 
	C358.268616,47.417606 359.329529,46.710907 360.081512,46.019577 
	C361.780640,44.457474 363.531555,42.951683 365.261414,41.422997 
	C365.424011,41.413914 365.586609,41.404831 365.749207,41.395748 
	C367.498718,39.307514 369.248230,37.219284 370.997772,35.131054 
	C382.432343,38.349491 393.866913,41.567924 405.649902,44.937698 
z"/>
<path fill="#0ABCEA" opacity="1.000000" stroke="none" 
	d="
M370.671814,35.018822 
	C369.248230,37.219284 367.498718,39.307514 365.749207,41.395748 
	C365.586609,41.404831 365.424011,41.413914 365.261414,41.422997 
	C363.531555,42.951683 361.780640,44.457474 360.081512,46.019577 
	C359.329529,46.710907 358.268616,47.417606 358.061188,48.287422 
	C357.277069,51.575497 355.394684,53.476776 352.067139,54.039055 
	C351.462555,54.141212 350.450684,54.501820 350.404327,54.847458 
	C349.315430,62.961056 340.387085,62.211094 335.895874,67.401230 
	C333.151123,67.376976 331.065399,67.125519 328.832886,66.671120 
	C328.132660,66.591026 327.579254,66.713875 326.559814,66.894302 
	C320.729034,66.812294 315.364288,66.672707 309.999512,66.533127 
	C308.684875,60.658123 313.264343,57.989609 316.571259,54.744873 
	C322.405884,49.019886 328.409027,43.466640 334.341675,37.841526 
	C334.073700,37.399464 333.805756,36.957397 333.537781,36.515335 
	C330.255524,36.515335 326.973267,36.515335 323.689209,36.515335 
	C322.007935,43.809937 321.247650,44.322994 316.392761,41.507973 
	C317.719940,38.830795 319.051819,36.149845 320.383667,33.468891 
	C325.956299,29.551495 331.670502,33.192753 337.670685,34.229626 
	C338.151794,34.950584 338.632904,35.671543 339.114014,36.392502 
	C339.991302,34.772690 340.868561,33.152878 341.894928,31.218611 
	C348.089172,31.600004 354.134338,32.295856 360.623962,33.354115 
	C361.442474,33.613480 361.816498,33.510437 362.190521,33.407394 
	C363.222107,33.586285 364.253693,33.765179 365.875427,34.276455 
	C366.858978,34.681820 367.252411,34.754799 367.645844,34.827782 
	C368.545868,34.854053 369.445862,34.880325 370.671814,35.018822 
M361.231750,39.097363 
	C361.886353,39.097118 362.540955,39.096870 363.195526,39.096630 
	C363.044678,38.566067 362.893799,38.035503 362.742950,37.504936 
	C362.201355,37.836380 361.659729,38.167824 361.231750,39.097363 
M364.825073,36.245270 
	C364.880371,36.411987 364.935638,36.578701 364.990936,36.745415 
	C365.044830,36.577682 365.098755,36.409954 364.825073,36.245270 
z"/>
<path fill="#0FBADD" opacity="1.000000" stroke="none" 
	d="
M86.515846,484.530212 
	C87.236397,483.336639 88.077293,482.395874 89.370270,480.949310 
	C90.643486,482.592285 91.848938,484.147858 93.755234,486.607788 
	C91.206017,486.316650 89.854561,486.162323 88.122681,486.009888 
	C87.373573,485.602203 87.004883,485.192596 86.515846,484.530212 
z"/>
<path fill="#15B7CB" opacity="1.000000" stroke="none" 
	d="
M161.220230,553.326172 
	C162.323532,553.437561 163.492676,553.879639 164.820892,554.607788 
	C163.748688,554.481445 162.517380,554.069153 161.220230,553.326172 
z"/>
<path fill="#1CB5B9" opacity="1.000000" stroke="none" 
	d="
M337.278259,596.815918 
	C337.649048,596.491516 338.299713,596.218872 339.075714,596.239258 
	C338.653381,596.644104 338.105774,596.755920 337.278259,596.815918 
z"/>
<path fill="#11B9D8" opacity="1.000000" stroke="none" 
	d="
M115.314209,517.192749 
	C115.792809,517.363220 116.365532,517.786804 116.999535,518.491577 
	C116.509979,518.330566 115.959145,517.888184 115.314209,517.192749 
z"/>
<path fill="#0CBCE6" opacity="1.000000" stroke="none" 
	d="
M362.009827,33.299629 
	C361.816498,33.510437 361.442474,33.613480 361.033875,33.468075 
	C361.272705,33.115383 361.549316,33.106129 362.009827,33.299629 
z"/>
<path fill="#0CBCE6" opacity="1.000000" stroke="none" 
	d="
M367.455566,34.575844 
	C367.252411,34.754799 366.858978,34.681820 366.250183,34.396027 
	C366.444977,34.230110 366.855133,34.277008 367.455566,34.575844 
z"/>
<path fill="#FEFFFF" opacity="1.000000" stroke="none" 
	d="
M328.979706,66.874069 
	C331.065399,67.125519 333.151123,67.376976 335.617554,67.563126 
	C348.923431,69.714302 361.848602,71.930771 375.348328,74.331322 
	C376.265564,74.579430 376.608246,74.643463 376.950928,74.707489 
	C377.396729,74.829765 377.842560,74.952042 378.637268,75.061424 
	C394.375946,81.084526 409.765717,87.120529 425.734192,93.462074 
	C427.817749,93.879280 429.322571,93.990952 430.827423,94.102615 
	C432.986755,95.996483 435.146088,97.890350 437.651428,99.795486 
	C455.933960,111.216949 472.991425,123.754631 488.347778,138.985260 
	C499.273010,152.422760 509.985931,165.657928 520.495056,179.053009 
	C522.794250,181.983658 524.366638,185.484543 526.581299,188.878220 
	C538.076172,208.746597 546.798645,229.470901 552.731567,251.725037 
	C555.131042,265.573639 557.497375,279.106689 559.359497,292.708740 
	C560.188232,298.762390 560.000977,304.955139 560.383423,311.541931 
	C560.149902,331.254669 558.579895,350.377258 554.015625,369.147400 
	C552.539062,375.219666 550.771362,381.221069 549.139038,387.627899 
	C541.537781,410.270386 531.814514,431.511597 518.506042,451.004517 
	C485.940948,498.702759 442.167755,531.425781 387.042816,549.609924 
	C386.861542,550.007141 386.688324,549.799866 386.688324,549.799927 
	C385.886566,549.913208 385.084808,550.026489 384.076172,550.367798 
	C370.859772,553.156555 357.930328,556.273315 344.823914,558.161926 
	C318.078430,562.015808 291.388306,560.728516 264.875244,555.593933 
	C263.243134,555.277832 261.606293,554.986206 259.550873,554.634644 
	C234.709106,548.665222 211.492157,539.696167 189.343811,527.077026 
	C188.577728,526.662537 188.153900,526.326294 187.328415,525.753113 
	C186.690414,525.236816 186.392822,525.132996 186.033966,525.204773 
	C185.897797,525.094238 185.761642,524.983643 185.241226,524.559204 
	C184.236252,523.914185 183.615540,523.583191 182.994827,523.252136 
	C174.052979,516.744812 165.012909,510.366699 156.210983,503.675323 
	C151.854614,500.363495 147.936752,496.474854 143.507629,492.701050 
	C134.248840,482.623260 125.248970,472.739197 116.399750,462.722046 
	C114.494461,460.565308 113.132797,457.928314 111.244453,455.316803 
	C98.699486,436.972961 88.848373,417.565308 80.473145,397.086731 
	C77.946136,388.500305 75.400490,380.116699 73.634674,371.571960 
	C71.393829,360.728546 69.785965,349.754333 67.801956,338.418243 
	C67.736420,322.072388 66.604202,306.031067 68.138878,290.249054 
	C69.691872,274.278595 73.884148,258.564789 76.900810,242.369415 
	C83.640282,221.570587 92.002625,201.863800 103.532059,183.621246 
	C136.094635,132.098770 181.377625,96.890816 239.648987,77.767273 
	C260.633026,71.600899 281.611176,67.611580 303.822327,66.840652 
	C304.503296,66.809433 304.942352,66.641747 304.942352,66.641747 
	C306.353363,66.674332 307.764374,66.706917 309.587463,66.636307 
	C315.364288,66.672707 320.729034,66.812294 326.881714,66.967415 
	C328.106293,66.946655 328.542999,66.910362 328.979706,66.874069 
M266.553925,463.549744 
	C270.194519,464.366364 273.835083,465.182983 277.823792,465.999969 
	C277.823792,465.999969 278.172363,465.999939 278.172363,465.999939 
	C278.172363,465.999939 278.520935,466.000000 278.918884,466.712402 
	C282.874176,467.519531 286.821899,468.366180 290.786041,469.127228 
	C311.525879,473.108948 332.256561,472.075592 352.398743,466.526184 
	C398.995789,453.688141 433.896210,426.094177 455.428497,382.274139 
	C470.359100,351.889099 474.181793,320.010834 469.021698,286.818054 
	C466.845367,272.818756 462.432861,259.530762 455.959656,246.175262 
	C455.424774,244.785919 455.012390,243.333755 454.336884,242.016541 
	C440.447754,214.932907 420.502502,193.472839 394.330688,177.918869 
	C382.620819,170.959656 370.407837,165.046143 356.220856,161.960785 
	C354.546967,161.324249 352.921509,160.471344 351.191833,160.084091 
	C329.772858,155.288712 308.215942,154.302078 286.522675,158.003601 
	C253.591385,163.622665 225.402817,178.608154 201.753052,201.946243 
	C186.962830,216.541550 175.709274,233.742523 167.601837,252.919479 
	C161.291901,267.844696 157.014084,283.474915 156.314621,299.560394 
	C155.697998,313.740692 156.223190,328.206909 158.438416,342.199524 
	C160.220184,353.454285 165.282928,364.189636 168.946732,375.897522 
	C175.263260,393.561127 186.317398,408.248016 198.662643,421.949615 
	C210.304550,434.870514 224.180817,445.252655 239.672104,453.075470 
	C248.010117,457.286041 257.178162,459.852966 266.553925,463.549744 
z"/>
<path fill="#19B6C0" opacity="1.000000" stroke="none" 
	d="
M386.804016,549.885742 
	C387.867279,549.921387 388.988068,550.078491 390.108887,550.235596 
	C390.061157,550.678711 390.013458,551.121826 389.965729,551.565002 
	C388.964264,551.200562 387.962830,550.836121 386.824829,550.135742 
	C386.688324,549.799866 386.861542,550.007141 386.804016,549.885742 
z"/>
<path fill="#09BCEB" opacity="1.000000" stroke="none" 
	d="
M234.954651,75.606155 
	C234.712494,75.209343 234.714157,74.814552 234.744476,74.421982 
	C234.745316,74.410919 235.051392,74.423424 235.215134,74.424934 
	C235.210922,74.819450 235.206726,75.213974 234.954651,75.606155 
z"/>
<path fill="#10BAD9" opacity="1.000000" stroke="none" 
	d="
M431.115906,93.890305 
	C429.322571,93.990952 427.817749,93.879280 426.093018,93.543030 
	C427.269989,92.275826 428.666809,91.233192 430.063660,90.190567 
	C430.510559,91.353043 430.957489,92.515511 431.115906,93.890305 
z"/>
<path fill="#10BAD9" opacity="1.000000" stroke="none" 
	d="
M452.226227,72.160194 
	C452.448059,71.427422 452.911407,70.883415 453.374786,70.339409 
	C453.949310,71.241158 454.523865,72.142899 455.098419,73.044640 
	C454.791260,73.280991 454.484100,73.517342 454.176941,73.753685 
	C453.607208,73.285439 453.037476,72.817200 452.226227,72.160194 
z"/>
<path fill="#0FBADD" opacity="1.000000" stroke="none" 
	d="
M77.466766,393.449280 
	C77.522766,393.415680 77.410774,393.482910 77.466766,393.449280 
z"/>
<path fill="#0CBCE6" opacity="1.000000" stroke="none" 
	d="
M304.847412,66.530533 
	C304.942352,66.641747 304.503296,66.809433 304.276489,66.748360 
	C304.214539,66.373123 304.448822,66.283806 304.847412,66.530533 
z"/>
<path fill="#15B7CB" opacity="1.000000" stroke="none" 
	d="
M182.985046,523.597778 
	C183.615540,523.583191 184.236252,523.914185 184.991241,524.477295 
	C183.939819,525.926941 182.754120,527.144592 181.568420,528.362244 
	C181.211304,528.018311 180.854187,527.674377 180.497070,527.330444 
	C181.323135,526.201416 182.149200,525.072449 182.985046,523.597778 
z"/>
<path fill="#11B9D8" opacity="1.000000" stroke="none" 
	d="
M140.532684,495.550354 
	C140.476868,495.583710 140.588501,495.516968 140.532684,495.550354 
z"/>
<path fill="#15B7CB" opacity="1.000000" stroke="none" 
	d="
M186.173584,525.394287 
	C186.392822,525.132996 186.690414,525.236816 187.047333,525.731445 
	C186.841248,525.924011 186.556335,525.802979 186.173584,525.394287 
z"/>
<path fill="#0CBBE4" opacity="1.000000" stroke="none" 
	d="
M55.398724,423.723267 
	C55.558575,423.849915 55.581673,424.068848 55.604774,424.287811 
	C55.490505,424.130402 55.376240,423.973022 55.398724,423.723267 
z"/>
<path fill="#0DBADF" opacity="1.000000" stroke="none" 
	d="
M376.763611,74.523987 
	C376.608246,74.643463 376.265564,74.579430 375.740356,74.317322 
	C375.897339,74.192993 376.236786,74.266739 376.763611,74.523987 
z"/>
<path fill="#0CBCE6" opacity="1.000000" stroke="none" 
	d="
M361.174927,38.798317 
	C361.659729,38.167824 362.201355,37.836380 362.742920,37.504936 
	C362.893799,38.035503 363.044678,38.566067 363.195557,39.096626 
	C362.540955,39.096870 361.886353,39.097118 361.174927,38.798317 
z"/>
<path fill="#0CBCE6" opacity="1.000000" stroke="none" 
	d="
M364.988892,36.243748 
	C365.098755,36.409954 365.044830,36.577682 364.990936,36.745415 
	C364.935638,36.578701 364.880371,36.411987 364.988892,36.243748 
z"/>
<path fill="#0CBCE6" opacity="1.000000" stroke="none" 
	d="
M328.832886,66.671127 
	C328.542999,66.910362 328.106293,66.946655 327.347717,66.909836 
	C327.579254,66.713875 328.132660,66.591026 328.832886,66.671127 
z"/>
<path fill="#FEFFFF" opacity="1.000000" stroke="none" 
	d="
M278.520935,466.000000 
	C278.520935,466.000000 278.172363,465.999939 278.172363,465.999939 
	C278.172363,465.999939 277.823792,465.999969 277.480438,465.653076 
	C273.468292,464.107544 269.799500,462.908905 266.015198,461.380005 
	C260.298370,458.672394 254.636765,456.426666 249.107132,453.892883 
	C232.566223,446.313507 217.482071,436.610596 205.370911,423.083069 
	C206.131332,422.966156 206.565491,422.901398 207.463959,422.903992 
	C221.952896,422.895111 235.977493,422.818909 250.464951,422.820129 
	C267.286133,422.850983 283.644440,422.804352 300.465820,422.833405 
	C320.306793,422.852142 339.684753,422.795227 359.384460,422.802765 
	C360.139038,422.804688 360.571777,422.742126 361.240204,422.767212 
	C361.639648,422.819244 361.803467,422.783600 362.341278,422.823181 
	C363.473022,422.847900 364.230713,422.797424 365.452209,422.825470 
	C372.198761,422.904022 378.481506,422.904022 385.043121,422.904022 
	C385.043121,416.235626 385.043121,410.116150 385.133728,403.553833 
	C385.224365,401.535248 385.224365,399.959473 385.224365,398.113983 
	C381.800293,398.113983 378.901550,398.113983 375.541138,398.040039 
	C370.385681,398.039978 365.691895,398.113861 360.748199,398.150940 
	C360.332520,398.143555 360.166748,398.172974 359.543549,398.093231 
	C351.723175,398.029114 344.360229,398.074158 336.534058,398.043701 
	C320.047150,398.017426 304.023407,398.066650 287.536621,398.037720 
	C267.780457,397.926483 248.487320,397.893433 229.154205,397.404602 
	C229.099243,373.354248 229.084305,349.759674 229.531281,326.116669 
	C237.662750,325.992096 245.332275,325.915924 253.466019,325.907898 
	C263.287781,325.930450 272.645355,325.884857 282.467224,325.906738 
	C293.274200,325.927246 303.616882,325.880280 314.296143,325.901550 
	C315.086121,325.925446 315.539581,325.881104 316.455261,325.905457 
	C320.860413,325.974121 324.803253,325.974121 328.885712,325.974121 
	C328.885712,321.605530 328.885712,317.804413 328.963593,313.558655 
	C328.990387,310.410858 328.939301,307.707672 328.964478,304.571045 
	C329.344208,301.995087 328.776184,300.767365 326.248169,300.962799 
	C323.509155,301.174591 320.748657,301.108459 317.544098,301.094299 
	C313.727295,301.071747 310.363922,301.118439 306.536407,301.096436 
	C296.714630,301.072327 287.356995,301.116882 277.535339,301.092346 
	C261.095093,300.988129 245.118912,300.953003 229.109772,300.456970 
	C229.013168,280.332031 228.949493,260.668030 228.961273,240.579056 
	C229.036697,236.556015 229.036697,232.957901 229.036697,229.234680 
	C230.078690,229.142273 231.540085,229.012650 233.464539,228.960358 
	C243.952621,228.987869 253.977646,228.938065 264.465942,228.963348 
	C278.619293,228.988861 292.309418,228.939285 306.462952,228.966003 
	C324.624573,228.963943 342.322784,228.885590 360.266388,228.846344 
	C360.511810,228.885468 361.002472,228.805954 361.419861,228.913818 
	C363.557312,228.976212 365.277344,228.930740 367.421082,228.961533 
	C369.561981,228.987350 371.279175,228.936905 373.455994,228.961929 
	C377.617218,229.037399 381.318848,229.037399 385.035614,229.037399 
	C385.035614,224.522949 385.035614,220.760422 385.127655,216.576385 
	C385.160095,214.435654 385.100464,212.716446 385.132141,210.573639 
	C385.131134,208.429260 385.038757,206.708435 384.940125,204.736771 
	C384.634491,204.406235 384.335114,204.326569 383.699097,204.173187 
	C382.908234,204.148514 382.454102,204.197556 381.577209,204.169525 
	C379.440521,204.144592 377.726532,204.196732 375.578735,204.172592 
	C373.098358,204.148056 371.051849,204.199783 368.564911,204.174713 
	C365.743103,204.165726 363.361664,204.233505 360.653107,204.230103 
	C359.883911,204.189606 359.441833,204.220306 358.537720,204.169571 
	C349.386536,204.142517 340.697449,204.196899 331.544556,204.173767 
	C319.721710,204.147217 308.362640,204.198181 296.540283,204.171692 
	C273.708496,204.128494 251.340012,204.162766 228.642456,204.124420 
	C227.868515,204.094711 227.423676,204.137619 226.547089,204.109207 
	C224.077789,204.081696 222.040237,204.125519 219.541290,204.099091 
	C214.400345,203.978836 209.720810,203.928848 205.180908,203.582916 
	C215.395477,195.510559 224.912567,186.837387 235.664185,180.148636 
	C256.568787,167.143494 279.856354,160.630692 304.384705,159.094803 
	C322.205688,157.978928 339.779999,160.130341 357.337463,165.104980 
	C367.748749,169.495178 378.136658,173.114639 387.830200,178.087601 
	C407.033112,187.939041 423.059753,201.979080 435.886658,219.225464 
	C443.076141,228.891998 448.657196,239.754822 454.977295,250.453888 
	C457.175903,256.907288 459.595184,262.912750 461.501953,269.076752 
	C468.073639,290.321014 469.744019,312.095398 466.821411,334.044464 
	C464.100769,354.476471 457.355072,373.660645 446.838226,391.524963 
	C432.140778,416.490631 412.094788,435.833160 386.705750,449.642395 
	C361.110291,463.563904 333.602966,469.343170 304.619781,467.872253 
	C296.756744,467.473175 288.966980,465.702484 281.124634,464.711517 
	C280.323792,464.610321 279.391968,465.545624 278.520935,466.000000 
M372.919617,325.974731 
	C376.953888,325.974731 380.988190,325.974731 385.040039,325.974731 
	C385.040039,321.177124 385.040039,317.088043 385.223663,312.113495 
	C385.166595,309.407288 385.109528,306.701111 385.226013,303.133728 
	C383.336914,298.916260 379.756104,301.755157 376.071167,301.024628 
	C370.882721,301.024628 365.694244,301.024628 360.565186,301.024628 
	C360.565186,306.528076 360.565186,311.273468 360.321747,316.880981 
	C360.424469,318.657928 360.527222,320.434906 360.371582,322.802124 
	C360.569550,323.754303 360.767487,324.706512 361.845703,325.945984 
	C365.228912,325.909515 368.612152,325.873047 372.919617,325.974731 
z"/>
<path fill="#BFEAEB" opacity="1.000000" stroke="none" 
	d="
M357.000153,164.946213 
	C339.779999,160.130341 322.205688,157.978928 304.384705,159.094803 
	C279.856354,160.630692 256.568787,167.143494 235.664185,180.148636 
	C224.912567,186.837387 215.395477,195.510559 204.931152,203.721863 
	C204.320419,204.461990 204.099091,204.767273 203.580444,205.203583 
	C199.268661,209.754318 194.877121,213.890701 191.306091,218.643600 
	C177.173523,237.453491 167.087418,258.178741 162.290451,281.366974 
	C158.454712,299.908813 157.251923,318.580841 161.003021,337.153229 
	C163.516739,349.599152 167.594162,361.729218 170.657120,374.028534 
	C169.858185,374.422791 169.374039,374.789124 168.889877,375.155457 
	C165.282928,364.189636 160.220184,353.454285 158.438416,342.199524 
	C156.223190,328.206909 155.697998,313.740692 156.314621,299.560394 
	C157.014084,283.474915 161.291901,267.844696 167.601837,252.919479 
	C175.709274,233.742523 186.962830,216.541550 201.753052,201.946243 
	C225.402817,178.608154 253.591385,163.622665 286.522675,158.003601 
	C308.215942,154.302078 329.772858,155.288712 351.191833,160.084091 
	C352.921509,160.471344 354.546967,161.324249 356.610565,162.352356 
	C357.000244,163.478027 357.000214,164.212112 357.000153,164.946213 
z"/>
<path fill="#BAECF9" opacity="1.000000" stroke="none" 
	d="
M278.719910,466.356201 
	C279.391968,465.545624 280.323792,464.610321 281.124634,464.711517 
	C288.966980,465.702484 296.756744,467.473175 304.619781,467.872253 
	C333.602966,469.343170 361.110291,463.563904 386.705750,449.642395 
	C412.094788,435.833160 432.140778,416.490631 446.838226,391.524963 
	C457.355072,373.660645 464.100769,354.476471 466.821411,334.044464 
	C469.744019,312.095398 468.073639,290.321014 461.501953,269.076752 
	C459.595184,262.912750 457.175903,256.907288 455.015198,250.114426 
	C455.380676,248.561325 455.722534,247.722946 456.064392,246.884552 
	C462.432861,259.530762 466.845367,272.818756 469.021698,286.818054 
	C474.181793,320.010834 470.359100,351.889099 455.428497,382.274139 
	C433.896210,426.094177 398.995789,453.688141 352.398743,466.526184 
	C332.256561,472.075592 311.525879,473.108948 290.786041,469.127228 
	C286.821899,468.366180 282.874176,467.519531 278.719910,466.356201 
z"/>
<path fill="#BEECF3" opacity="1.000000" stroke="none" 
	d="
M168.918304,375.526489 
	C169.374039,374.789124 169.858185,374.422791 170.687469,374.252869 
	C171.032623,374.449249 171.039001,374.901886 171.045197,375.217224 
	C171.389755,376.018127 171.728119,376.503662 172.329987,377.203949 
	C173.959747,380.078003 175.270523,382.767517 176.701553,385.391449 
	C184.032761,398.833984 192.491852,411.444244 203.969757,422.172241 
	C204.419098,422.668091 204.731873,422.901672 205.044647,423.135254 
	C217.482071,436.610596 232.566223,446.313507 249.107132,453.892883 
	C254.636765,456.426666 260.298370,458.672394 265.965088,461.743408 
	C266.010895,462.678497 265.991302,462.919952 265.971710,463.161438 
	C257.178162,459.852966 248.010117,457.286041 239.672104,453.075470 
	C224.180817,445.252655 210.304550,434.870514 198.662643,421.949615 
	C186.317398,408.248016 175.263260,393.561127 168.918304,375.526489 
z"/>
<path fill="#BEECF3" opacity="1.000000" stroke="none" 
	d="
M456.012024,246.529907 
	C455.722534,247.722946 455.380676,248.561325 455.000916,249.739166 
	C448.657196,239.754822 443.076141,228.891998 435.886658,219.225464 
	C423.059753,201.979080 407.033112,187.939041 387.830200,178.087601 
	C378.136658,173.114639 367.748749,169.495178 357.337463,165.104980 
	C357.000214,164.212112 357.000244,163.478027 356.999512,162.376358 
	C370.407837,165.046143 382.620819,170.959656 394.330688,177.918869 
	C420.502502,193.472839 440.447754,214.932907 454.336884,242.016541 
	C455.012390,243.333755 455.424774,244.785919 456.012024,246.529907 
z"/>
<path fill="#BAECF9" opacity="1.000000" stroke="none" 
	d="
M266.262817,463.355591 
	C265.991302,462.919952 266.010895,462.678497 266.080597,462.073608 
	C269.799500,462.908905 273.468292,464.107544 277.306396,465.652893 
	C273.835083,465.182983 270.194519,464.366364 266.262817,463.355591 
z"/>
<path fill="#1BB5BC" opacity="1.000000" stroke="none" 
	d="
M203.877747,205.072556 
	C204.099091,204.767273 204.320419,204.461990 204.791504,204.017776 
	C209.720810,203.928848 214.400345,203.978836 219.540436,204.521683 
	C218.674408,215.151215 217.324936,225.284943 216.026123,235.425171 
	C213.408218,255.863800 210.836929,276.308411 208.193237,296.743683 
	C207.843918,299.443756 208.656570,300.957336 211.527603,300.977234 
	C213.024536,300.987610 214.521622,300.971619 216.434509,300.972961 
	C218.236679,300.971802 219.622955,300.965179 221.458923,300.969971 
	C224.319977,300.960205 226.731354,300.939056 229.142731,300.917908 
	C245.118912,300.953003 261.095093,300.988129 277.453522,301.449158 
	C276.223480,302.574921 274.673370,303.602631 272.988953,303.921967 
	C261.023132,306.190460 249.016327,308.242767 237.049179,310.504669 
	C226.070587,312.579681 215.125336,314.830963 204.095825,316.539978 
	C203.976730,279.074432 203.927246,242.073486 203.877747,205.072556 
z"/>
<path fill="#13B8CF" opacity="1.000000" stroke="none" 
	d="
M204.165405,317.004608 
	C215.125336,314.830963 226.070587,312.579681 237.049179,310.504669 
	C249.016327,308.242767 261.023132,306.190460 272.988953,303.921967 
	C274.673370,303.602631 276.223480,302.574921 277.917542,301.518280 
	C287.356995,301.116882 296.714630,301.072327 306.491089,301.436279 
	C304.944000,303.896484 302.978088,305.948242 300.583252,308.000183 
	C299.657471,308.003418 299.145203,307.927338 298.666046,308.020874 
	C276.577423,312.334595 254.469040,316.555481 232.447205,321.187714 
	C230.619110,321.572296 229.024612,322.855499 226.574875,321.999756 
	C222.150787,322.717957 218.151810,323.436401 215.378067,323.934753 
	C212.500015,349.014740 209.746063,373.013367 206.716278,397.127075 
	C205.694672,397.488129 204.948883,397.734131 204.139191,397.517426 
	C204.105331,370.371338 204.135361,343.687988 204.165405,317.004608 
z"/>
<path fill="#11B9D8" opacity="1.000000" stroke="none" 
	d="
M221.009247,300.958588 
	C219.622955,300.965179 218.236679,300.971802 216.427795,300.527893 
	C216.670532,293.671326 217.271561,287.257843 218.016205,280.861023 
	C219.142471,271.186066 220.390015,261.525269 221.546631,251.853760 
	C222.722885,242.017944 223.868088,232.178329 224.994812,222.336700 
	C225.687271,216.288208 226.319519,210.232819 226.978821,204.180542 
	C227.423676,204.137619 227.868515,204.094711 228.649628,204.571686 
	C228.993225,208.724869 229.000580,212.358154 229.004974,216.413055 
	C228.418167,221.209305 230.699860,222.508789 234.591309,221.966217 
	C236.220245,221.739075 237.815582,221.277176 239.442505,221.028809 
	C254.079117,218.794098 268.672089,216.172516 283.371826,214.480774 
	C298.080872,212.787979 312.171722,207.179657 327.257904,207.817520 
	C328.788391,207.882233 330.422394,205.498688 332.008331,204.251282 
	C340.697449,204.196899 349.386536,204.142517 358.537903,204.513245 
	C359.000122,205.625763 359.000061,206.313187 358.589050,207.009186 
	C348.588470,208.674973 339.011841,210.412521 329.406342,211.972000 
	C311.658295,214.853439 293.907166,217.721619 276.130859,220.421036 
	C262.939331,222.424194 249.696121,224.087524 236.506836,226.104370 
	C235.226685,226.300125 234.164719,227.922760 233.001480,228.883041 
	C231.540085,229.012650 230.078690,229.142273 229.036697,229.234680 
	C229.036697,232.957901 229.036697,236.556015 228.593231,240.655151 
	C227.433411,243.223007 226.249725,245.253998 226.088043,247.363327 
	C225.596237,253.779526 225.824341,260.258911 225.176895,266.653442 
	C224.016739,278.111664 222.422226,289.525940 221.009247,300.958588 
z"/>
<path fill="#10BAD9" opacity="1.000000" stroke="none" 
	d="
M250.002090,422.742676 
	C235.977493,422.818909 221.952896,422.895111 207.566803,422.528015 
	C210.050751,421.660065 212.920044,421.354401 215.737488,420.789917 
	C226.803131,418.572937 237.801804,415.977661 248.920547,414.080902 
	C263.042389,411.671906 277.268066,409.878326 291.427856,407.683350 
	C305.259308,405.539276 319.075531,403.289001 332.864471,400.889954 
	C334.357544,400.630157 335.625092,399.074005 336.997253,398.119171 
	C344.360229,398.074158 351.723175,398.029114 359.543457,398.506287 
	C359.983154,400.686096 359.965485,402.343658 359.530304,404.001953 
	C355.378510,404.657379 351.649384,405.342834 347.909180,405.961700 
	C324.588898,409.820526 301.274445,413.715668 277.939789,417.485901 
	C269.679016,418.820618 261.359894,419.791718 253.087234,421.058136 
	C251.998413,421.224823 251.027573,422.162231 250.002090,422.742676 
z"/>
<path fill="#13B7CC" opacity="1.000000" stroke="none" 
	d="
M336.534058,398.043701 
	C335.625092,399.074005 334.357544,400.630157 332.864471,400.889954 
	C319.075531,403.289001 305.259308,405.539276 291.427856,407.683350 
	C277.268066,409.878326 263.042389,411.671906 248.920547,414.080902 
	C237.801804,415.977661 226.803131,418.572937 215.737488,420.789917 
	C212.920044,421.354401 210.050751,421.660065 207.102463,422.460663 
	C206.565491,422.901398 206.131332,422.966156 205.370911,423.083069 
	C204.731873,422.901672 204.419098,422.668091 204.036057,421.732666 
	C204.033585,418.354889 204.101379,415.678955 204.592682,413.001984 
	C214.633224,411.516235 224.250046,410.029846 233.867401,408.547119 
	C248.054291,406.359894 262.266479,404.320618 276.412689,401.896240 
	C280.374603,401.217224 284.142670,399.407135 287.999664,398.115906 
	C304.023407,398.066650 320.047150,398.017426 336.534058,398.043701 
z"/>
<path fill="#1BB5BC" opacity="1.000000" stroke="none" 
	d="
M287.536621,398.037720 
	C284.142670,399.407135 280.374603,401.217224 276.412689,401.896240 
	C262.266479,404.320618 248.054291,406.359894 233.867401,408.547119 
	C224.250046,410.029846 214.633224,411.516235 204.522385,412.540161 
	C204.086761,407.379578 204.144928,402.679871 204.203094,397.980133 
	C204.948883,397.734131 205.694672,397.488129 207.069427,397.276489 
	C209.469696,397.522797 211.240997,397.734772 213.412598,397.962524 
	C214.882675,397.963684 215.952438,397.949005 217.484070,397.947144 
	C221.695343,397.926727 225.444778,397.893555 229.194199,397.860352 
	C248.487320,397.893433 267.780457,397.926483 287.536621,398.037720 
z"/>
<path fill="#13B7CC" opacity="1.000000" stroke="none" 
	d="
M226.547089,204.109192 
	C226.319519,210.232819 225.687271,216.288208 224.994812,222.336700 
	C223.868088,232.178329 222.722885,242.017944 221.546631,251.853760 
	C220.390015,261.525269 219.142471,271.186066 218.016205,280.861023 
	C217.271561,287.257843 216.670532,293.671326 216.011932,300.522461 
	C214.521622,300.971619 213.024536,300.987610 211.527603,300.977234 
	C208.656570,300.957336 207.843918,299.443756 208.193237,296.743683 
	C210.836929,276.308411 213.408218,255.863800 216.026123,235.425171 
	C217.324936,225.284943 218.674408,215.151215 220.001816,204.591949 
	C222.040237,204.125519 224.077789,204.081696 226.547089,204.109192 
z"/>
<path fill="#0CBBE4" opacity="1.000000" stroke="none" 
	d="
M250.464951,422.820129 
	C251.027573,422.162231 251.998413,421.224823 253.087234,421.058136 
	C261.359894,419.791718 269.679016,418.820618 277.939789,417.485901 
	C301.274445,413.715668 324.588898,409.820526 347.909180,405.961700 
	C351.649384,405.342834 355.378510,404.657379 359.549042,404.430603 
	C359.972412,406.576508 359.959473,408.294464 359.568390,410.057861 
	C357.026306,410.738892 354.895966,411.550476 352.691010,411.970795 
	C348.975159,412.679047 345.204132,413.091919 341.470215,413.712616 
	C330.916779,415.466980 320.279205,416.869781 309.875214,419.277222 
	C306.637726,420.026367 301.792389,417.598694 300.002747,422.757690 
	C283.644440,422.804352 267.286133,422.850983 250.464951,422.820129 
z"/>
<path fill="#13B7CC" opacity="1.000000" stroke="none" 
	d="
M331.544556,204.173767 
	C330.422394,205.498688 328.788391,207.882233 327.257904,207.817520 
	C312.171722,207.179657 298.080872,212.787979 283.371826,214.480774 
	C268.672089,216.172516 254.079117,218.794098 239.442505,221.028809 
	C237.815582,221.277176 236.220245,221.739075 234.591309,221.966217 
	C230.699860,222.508789 228.418167,221.209305 229.415771,216.406570 
	C243.602585,213.650467 257.358124,211.211411 271.155396,209.037277 
	C279.048431,207.793533 287.014801,207.019531 294.930969,205.911362 
	C295.684631,205.805862 296.315643,204.824112 297.003601,204.249146 
	C308.362640,204.198181 319.721710,204.147217 331.544556,204.173767 
z"/>
<path fill="#0FBADD" opacity="1.000000" stroke="none" 
	d="
M233.464539,228.960358 
	C234.164719,227.922760 235.226685,226.300125 236.506836,226.104370 
	C249.696121,224.087524 262.939331,222.424194 276.130859,220.421036 
	C293.907166,217.721619 311.658295,214.853439 329.406342,211.972000 
	C339.011841,210.412521 348.588470,208.674973 358.631622,207.388321 
	C359.375031,209.503418 359.664886,211.247940 359.586670,212.953415 
	C358.255920,212.731552 357.248383,212.264404 356.337189,212.408188 
	C340.189331,214.956039 324.098969,217.922607 307.900238,220.077362 
	C294.522186,221.856888 281.682159,227.139679 267.859467,226.143127 
	C266.646149,226.055664 265.291626,227.926834 264.002686,228.888260 
	C253.977646,228.938065 243.952621,228.987869 233.464539,228.960358 
z"/>
<path fill="#0CBCE6" opacity="1.000000" stroke="none" 
	d="
M264.465942,228.963348 
	C265.291626,227.926834 266.646149,226.055664 267.859467,226.143127 
	C281.682159,227.139679 294.522186,221.856888 307.900238,220.077362 
	C324.098969,217.922607 340.189331,214.956039 356.337189,212.408188 
	C357.248383,212.264404 358.255920,212.731552 359.603882,213.331818 
	C359.979706,214.506195 359.970306,215.263107 359.749756,216.124573 
	C359.277649,216.425461 359.100311,216.680023 358.710907,217.217194 
	C357.116180,218.290894 355.908783,219.653854 354.502899,219.904770 
	C346.406403,221.349747 338.289490,222.751923 330.127289,223.734909 
	C323.251190,224.563004 316.764160,228.679474 309.407440,226.165482 
	C308.668091,225.912842 307.154022,227.927353 305.999512,228.889709 
	C292.309418,228.939285 278.619293,228.988861 264.465942,228.963348 
z"/>
<path fill="#09BCEB" opacity="1.000000" stroke="none" 
	d="
M229.154205,397.404602 
	C225.444778,397.893555 221.695343,397.926727 217.475647,397.514832 
	C218.483337,384.436981 219.976166,371.806000 221.430222,359.170532 
	C221.864639,355.395477 222.056015,351.588654 222.595093,347.830292 
	C223.640671,340.540436 224.853821,333.274567 226.295837,325.979126 
	C227.064957,325.642426 227.535767,325.325348 228.243225,325.139648 
	C228.676361,325.569031 228.872864,325.867035 229.069366,326.165070 
	C229.084305,349.759674 229.099243,373.354248 229.154205,397.404602 
z"/>
<path fill="#0FBADD" opacity="1.000000" stroke="none" 
	d="
M229.531281,326.116669 
	C228.872864,325.867035 228.676361,325.569031 228.116760,324.843811 
	C227.502426,323.611084 227.251221,322.805542 227.000000,322.000000 
	C229.024612,322.855499 230.619110,321.572296 232.447205,321.187714 
	C254.469040,316.555481 276.577423,312.334595 298.666046,308.020874 
	C299.145203,307.927338 299.657471,308.003418 300.579071,308.437805 
	C300.998901,310.918304 300.993958,312.961304 300.561279,315.002899 
	C285.378265,317.858490 270.616150,320.681488 255.882004,323.643524 
	C254.817795,323.857513 253.957138,325.084015 253.001831,325.839783 
	C245.332275,325.915924 237.662750,325.992096 229.531281,326.116669 
z"/>
<path fill="#1AB5BE" opacity="1.000000" stroke="none" 
	d="
M296.540283,204.171692 
	C296.315643,204.824112 295.684631,205.805862 294.930969,205.911362 
	C287.014801,207.019531 279.048431,207.793533 271.155396,209.037277 
	C257.358124,211.211411 243.602585,213.650467 229.418732,215.984985 
	C229.000580,212.358154 228.993225,208.724869 228.978699,204.644302 
	C251.340012,204.162766 273.708496,204.128494 296.540283,204.171692 
z"/>
<path fill="#07BDF1" opacity="1.000000" stroke="none" 
	d="
M300.465820,422.833374 
	C301.792389,417.598694 306.637726,420.026367 309.875214,419.277222 
	C320.279205,416.869781 330.916779,415.466980 341.470215,413.712616 
	C345.204132,413.091919 348.975159,412.679047 352.691010,411.970795 
	C354.895966,411.550476 357.026306,410.738892 359.585602,410.512390 
	C359.674896,414.860413 359.368774,418.799377 359.062683,422.738312 
	C339.684753,422.795227 320.306793,422.852142 300.465820,422.833374 
z"/>
<path fill="#07BDF1" opacity="1.000000" stroke="none" 
	d="
M306.462952,228.966003 
	C307.154022,227.927353 308.668091,225.912842 309.407440,226.165482 
	C316.764160,228.679474 323.251190,224.563004 330.127289,223.734909 
	C338.289490,222.751923 346.406403,221.349747 354.502899,219.904770 
	C355.908783,219.653854 357.116180,218.290894 358.948303,217.219299 
	C359.481384,216.997040 359.956360,216.998291 359.969055,217.456543 
	C359.994812,221.545593 360.007874,225.176422 360.020935,228.807220 
	C342.322784,228.885590 324.624573,228.963943 306.462952,228.966003 
z"/>
<path fill="#0FBADD" opacity="1.000000" stroke="none" 
	d="
M221.458923,300.969971 
	C222.422226,289.525940 224.016739,278.111664 225.176895,266.653442 
	C225.824341,260.258911 225.596237,253.779526 226.088043,247.363327 
	C226.249725,245.253998 227.433411,243.223007 228.517792,241.080109 
	C228.949493,260.668030 229.013168,280.332031 229.109772,300.456970 
	C226.731354,300.939056 224.319977,300.960205 221.458923,300.969971 
z"/>
<path fill="#0CBCE6" opacity="1.000000" stroke="none" 
	d="
M253.466034,325.907898 
	C253.957138,325.084015 254.817795,323.857513 255.882004,323.643524 
	C270.616150,320.681488 285.378265,317.858490 300.591492,315.323242 
	C301.695374,316.433868 302.341339,317.222687 302.989624,318.384460 
	C302.996307,319.503296 303.000610,320.249207 302.593445,320.996521 
	C295.796692,322.085876 289.406586,323.147949 283.036774,324.320160 
	C282.613312,324.398071 282.343964,325.313416 282.002930,325.839233 
	C272.645355,325.884857 263.287781,325.930450 253.466034,325.907898 
z"/>
<path fill="#10BAD9" opacity="1.000000" stroke="none" 
	d="
M376.002808,398.113953 
	C378.901550,398.113983 381.800293,398.113983 385.224365,398.113983 
	C385.224365,399.959473 385.224365,401.535248 384.761475,403.558990 
	C380.166107,407.558350 375.899292,410.968079 371.949158,414.711914 
	C369.389648,417.137787 367.292664,420.051697 364.988434,422.746918 
	C364.230713,422.797424 363.473022,422.847900 362.230774,422.657349 
	C361.559357,422.217499 361.333710,422.084167 361.045746,421.565552 
	C361.030640,418.404572 361.039185,415.694336 361.389404,412.952606 
	C366.488312,407.985413 371.245544,403.049683 376.002808,398.113953 
z"/>
<path fill="#18B6C4" opacity="1.000000" stroke="none" 
	d="
M365.452209,422.825470 
	C367.292664,420.051697 369.389648,417.137787 371.949158,414.711914 
	C375.899292,410.968079 380.166107,407.558350 384.670868,404.001831 
	C385.043121,410.116150 385.043121,416.235626 385.043121,422.904022 
	C378.481506,422.904022 372.198761,422.904022 365.452209,422.825470 
z"/>
<path fill="#12B8D2" opacity="1.000000" stroke="none" 
	d="
M303.004883,320.995117 
	C303.000610,320.249207 302.996307,319.503296 303.326416,318.332886 
	C306.329620,315.216125 309.157074,312.660217 311.621185,309.792145 
	C313.945526,307.086823 315.887421,304.052917 317.997528,301.163513 
	C320.748657,301.108459 323.509155,301.174591 326.248169,300.962799 
	C328.776184,300.767365 329.344208,301.995087 328.619995,304.608643 
	C326.193787,306.491180 324.006134,307.704956 322.218018,309.352356 
	C317.387787,313.802551 312.727631,318.437256 307.666199,322.997833 
	C306.887360,322.999847 306.442322,323.002808 305.751129,323.001801 
	C305.505005,322.997803 305.012787,322.989197 304.969055,322.669067 
	C304.285156,321.897797 303.644989,321.446625 303.002441,320.997681 
	C303.000000,320.999939 303.004883,320.995117 303.004883,320.995117 
z"/>
<path fill="#10BAD9" opacity="1.000000" stroke="none" 
	d="
M360.629944,322.211853 
	C360.527222,320.434906 360.424469,318.657928 360.768158,316.432770 
	C366.475800,311.043427 371.737061,306.102325 376.998291,301.161194 
	C379.756104,301.755157 383.336914,298.916260 384.790619,303.597931 
	C378.348816,309.842773 372.414001,315.701172 366.281097,321.344330 
	C364.905548,322.610016 362.836792,323.122284 361.052856,323.751556 
	C360.888947,323.085083 360.759430,322.648468 360.629944,322.211853 
z"/>
<path fill="#15B7CB" opacity="1.000000" stroke="none" 
	d="
M361.087189,323.981415 
	C362.836792,323.122284 364.905548,322.610016 366.281097,321.344330 
	C372.414001,315.701172 378.348816,309.842773 384.703827,304.028503 
	C385.109528,306.701111 385.166595,309.407288 384.784119,312.588806 
	C380.228149,317.321594 376.111755,321.579071 371.995361,325.836548 
	C368.612152,325.873047 365.228912,325.909515 361.414551,325.522461 
	C361.018005,324.726410 361.052582,324.353912 361.087189,323.981415 
z"/>
<path fill="#0CBBE4" opacity="1.000000" stroke="none" 
	d="
M308.000000,322.998779 
	C312.727631,318.437256 317.387787,313.802551 322.218018,309.352356 
	C324.006134,307.704956 326.193787,306.491180 328.543701,305.042053 
	C328.939301,307.707672 328.990387,310.410858 328.606049,313.562317 
	C324.111420,317.952637 320.052216,321.894714 315.993011,325.836761 
	C315.539581,325.881104 315.086121,325.925446 314.013916,325.651245 
	C311.597198,325.219208 309.799194,325.105774 308.000732,324.660156 
	C308.000183,323.884888 308.000092,323.441833 308.000000,322.998779 
z"/>
<path fill="#10BAD9" opacity="1.000000" stroke="none" 
	d="
M360.266357,228.846344 
	C360.007874,225.176422 359.994812,221.545593 359.980042,217.212021 
	C359.978333,216.509262 359.960907,216.020020 359.960907,216.020020 
	C359.970306,215.263107 359.979706,214.506195 359.971924,213.370880 
	C359.664886,211.247940 359.375031,209.503418 359.042572,207.379745 
	C359.000061,206.313187 359.000122,205.625763 359.000000,204.594666 
	C359.441833,204.220306 359.883911,204.189606 360.657227,204.659393 
	C361.006836,207.773758 361.025177,210.387634 361.027863,213.423492 
	C361.012177,215.726471 361.012177,217.607483 361.012177,219.488510 
	C361.554871,219.738892 362.097565,219.989273 362.640259,220.239670 
	C365.731201,216.890839 368.906555,213.614716 371.878540,210.163467 
	C373.440155,208.350037 374.646027,206.230286 376.012543,204.248856 
	C377.726532,204.196732 379.440521,204.144592 381.531067,204.504211 
	C377.469299,209.913376 373.010803,214.893066 368.600311,219.914932 
	C366.027985,222.843735 363.532501,225.840027 361.002441,228.805939 
	C361.002472,228.805954 360.511810,228.885468 360.266357,228.846344 
z"/>
<path fill="#18B6C4" opacity="1.000000" stroke="none" 
	d="
M317.544098,301.094299 
	C315.887421,304.052917 313.945526,307.086823 311.621185,309.792145 
	C309.157074,312.660217 306.329620,315.216125 303.324066,317.959930 
	C302.341339,317.222687 301.695374,316.433868 301.019226,315.324707 
	C300.993958,312.961304 300.998901,310.918304 301.008026,308.437622 
	C302.978088,305.948242 304.944000,303.896484 306.955231,301.504944 
	C310.363922,301.118439 313.727295,301.071747 317.544098,301.094299 
z"/>
<path fill="#0CBCE6" opacity="1.000000" stroke="none" 
	d="
M376.534729,301.092896 
	C371.737061,306.102325 366.475800,311.043427 360.889893,316.001709 
	C360.565186,311.273468 360.565186,306.528076 360.565186,301.024628 
	C365.694244,301.024628 370.882721,301.024628 376.534729,301.092896 
z"/>
<path fill="#12B8D2" opacity="1.000000" stroke="none" 
	d="
M361.419861,228.913818 
	C363.532501,225.840027 366.027985,222.843735 368.600311,219.914932 
	C373.010803,214.893066 377.469299,209.913376 381.953796,204.581284 
	C382.454102,204.197556 382.908234,204.148514 383.810059,204.341827 
	C384.447144,204.787140 384.676697,204.921631 384.946411,204.987625 
	C385.038757,206.708435 385.131134,208.429260 384.784363,210.606537 
	C378.562622,217.003754 372.779999,222.944504 366.997375,228.885269 
	C365.277344,228.930740 363.557312,228.976212 361.419861,228.913818 
z"/>
<path fill="#09BCEB" opacity="1.000000" stroke="none" 
	d="
M375.541138,398.040039 
	C371.245544,403.049683 366.488312,407.985413 361.373352,412.489136 
	C361.009766,407.434021 361.003937,402.810852 360.998077,398.187714 
	C365.691895,398.113861 370.385681,398.039978 375.541138,398.040039 
z"/>
<path fill="#1BB5BC" opacity="1.000000" stroke="none" 
	d="
M372.457489,325.905640 
	C376.111755,321.579071 380.228149,317.321594 384.692291,313.031555 
	C385.040039,317.088043 385.040039,321.177124 385.040039,325.974731 
	C380.988190,325.974731 376.953888,325.974731 372.457489,325.905640 
z"/>
<path fill="#07BDF1" opacity="1.000000" stroke="none" 
	d="
M316.455261,325.905457 
	C320.052216,321.894714 324.111420,317.952637 328.528168,314.006958 
	C328.885712,317.804413 328.885712,321.605530 328.885712,325.974121 
	C324.803253,325.974121 320.860413,325.974121 316.455261,325.905457 
z"/>
<path fill="#15B7CB" opacity="1.000000" stroke="none" 
	d="
M367.421082,228.961533 
	C372.779999,222.944504 378.562622,217.003754 384.693054,211.030106 
	C385.100464,212.716446 385.160095,214.435654 384.779907,216.609222 
	C380.558868,221.004532 376.777618,224.945496 372.996368,228.886459 
	C371.279175,228.936905 369.561981,228.987350 367.421082,228.961533 
z"/>
<path fill="#0CBCE6" opacity="1.000000" stroke="none" 
	d="
M375.578735,204.172592 
	C374.646027,206.230286 373.440155,208.350037 371.878540,210.163467 
	C368.906555,213.614716 365.731201,216.890839 362.640259,220.239670 
	C362.097565,219.989273 361.554871,219.738892 361.012177,219.488510 
	C361.012177,217.607483 361.012177,215.726471 361.370239,213.386078 
	C364.153931,210.034973 366.579620,207.143234 369.005310,204.251495 
	C371.051849,204.199783 373.098358,204.148056 375.578735,204.172592 
z"/>
<path fill="#1BB5BC" opacity="1.000000" stroke="none" 
	d="
M373.455994,228.961929 
	C376.777618,224.945496 380.558868,221.004532 384.687866,217.030731 
	C385.035614,220.760422 385.035614,224.522949 385.035614,229.037399 
	C381.318848,229.037399 377.617218,229.037399 373.455994,228.961929 
z"/>
<path fill="#07BDF1" opacity="1.000000" stroke="none" 
	d="
M308.001221,324.992340 
	C309.799194,325.105774 311.597198,325.219208 313.677368,325.583008 
	C303.616882,325.880280 293.274200,325.927246 282.467224,325.906738 
	C282.343964,325.313416 282.613312,324.398071 283.036774,324.320160 
	C289.406586,323.147949 295.796692,322.085876 302.593445,320.996521 
	C303.004883,320.995117 303.000000,320.999939 303.042450,321.319702 
	C303.727539,322.089386 304.370148,322.539307 305.012787,322.989197 
	C305.012787,322.989197 305.505005,322.997803 305.793640,323.321655 
	C306.721893,324.094421 307.361572,324.543396 308.001221,324.992340 
z"/>
<path fill="#07BDF1" opacity="1.000000" stroke="none" 
	d="
M368.564911,204.174713 
	C366.579620,207.143234 364.153931,210.034973 361.385925,212.964111 
	C361.025177,210.387634 361.006836,207.773758 360.984375,204.730576 
	C363.361664,204.233505 365.743103,204.165726 368.564911,204.174713 
z"/>
<path fill="#0CBCE6" opacity="1.000000" stroke="none" 
	d="
M360.748199,398.150940 
	C361.003937,402.810852 361.009766,407.434021 361.031677,412.520630 
	C361.039185,415.694336 361.030640,418.404572 361.020752,421.730408 
	C361.019409,422.345978 361.004547,422.679565 361.004547,422.679565 
	C360.571777,422.742126 360.139038,422.804688 359.384460,422.802765 
	C359.368774,418.799377 359.674896,414.860413 359.963776,410.466949 
	C359.959473,408.294464 359.972412,406.576508 359.966583,404.429871 
	C359.965485,402.343658 359.983154,400.686096 360.000854,398.615479 
	C360.166748,398.172974 360.332520,398.143555 360.748199,398.150940 
z"/>
<path fill="#0CBCE6" opacity="1.000000" stroke="none" 
	d="
M361.052856,323.751556 
	C361.052582,324.353912 361.018005,324.726410 360.974426,325.378784 
	C360.767487,324.706512 360.569550,323.754303 360.500732,322.506989 
	C360.759430,322.648468 360.888947,323.085083 361.052856,323.751556 
z"/>
<path fill="#18B6C4" opacity="1.000000" stroke="none" 
	d="
M361.240204,422.767212 
	C361.004547,422.679565 361.019409,422.345978 361.044403,422.181152 
	C361.333710,422.084167 361.559357,422.217499 361.856750,422.582153 
	C361.803467,422.783600 361.639648,422.819244 361.240204,422.767212 
z"/>
<path fill="#10BAD9" opacity="1.000000" stroke="none" 
	d="
M384.940125,204.736771 
	C384.676697,204.921631 384.447144,204.787140 384.146729,204.415543 
	C384.335114,204.326569 384.634491,204.406235 384.940125,204.736771 
z"/>
<path fill="#FEFFFF" opacity="1.000000" stroke="none" 
	d="
M204.139191,397.517426 
	C204.144928,402.679871 204.086761,407.379578 204.098877,412.541138 
	C204.101379,415.678955 204.033585,418.354889 203.899490,421.470398 
	C192.491852,411.444244 184.032761,398.833984 176.701553,385.391449 
	C175.270523,382.767517 173.959747,380.078003 172.293930,376.901489 
	C171.675903,375.890137 171.357452,375.396027 171.039001,374.901886 
	C171.039001,374.901886 171.032623,374.449249 171.002258,374.224915 
	C167.594162,361.729218 163.516739,349.599152 161.003021,337.153229 
	C157.251923,318.580841 158.454712,299.908813 162.290451,281.366974 
	C167.087418,258.178741 177.173523,237.453491 191.306091,218.643600 
	C194.877121,213.890701 199.268661,209.754318 203.580460,205.203583 
	C203.927246,242.073486 203.976730,279.074432 204.095810,316.539978 
	C204.135361,343.687988 204.105331,370.371338 204.139191,397.517426 
z"/>
<path fill="#BFEAEB" opacity="1.000000" stroke="none" 
	d="
M171.045197,375.217224 
	C171.357452,375.396027 171.675903,375.890137 172.030426,376.686707 
	C171.728119,376.503662 171.389755,376.018127 171.045197,375.217224 
z"/>
<path fill="#10BAD9" opacity="1.000000" stroke="none" 
	d="
M226.574875,321.999756 
	C227.251221,322.805542 227.502426,323.611084 227.880112,324.712463 
	C227.535767,325.325348 227.064957,325.642426 225.886810,325.979126 
	C220.662659,326.421051 219.414047,328.499634 218.951920,334.627625 
	C218.061737,346.431396 216.927063,358.217468 215.818283,370.003784 
	C214.941528,379.323608 213.951843,388.632812 213.012299,397.946716 
	C211.240997,397.734772 209.469696,397.522797 207.345245,397.161438 
	C209.746063,373.013367 212.500015,349.014740 215.378067,323.934753 
	C218.151810,323.436401 222.150787,322.717957 226.574875,321.999756 
z"/>
<path fill="#0DBADF" opacity="1.000000" stroke="none" 
	d="
M213.412598,397.962524 
	C213.951843,388.632812 214.941528,379.323608 215.818283,370.003784 
	C216.927063,358.217468 218.061737,346.431396 218.951920,334.627625 
	C219.414047,328.499634 220.662659,326.421051 225.588501,325.998779 
	C224.853821,333.274567 223.640671,340.540436 222.595093,347.830292 
	C222.056015,351.588654 221.864639,355.395477 221.430222,359.170532 
	C219.976166,371.806000 218.483337,384.436981 217.013794,397.502014 
	C215.952438,397.949005 214.882675,397.963684 213.412598,397.962524 
z"/>
<path fill="#0FBADD" opacity="1.000000" stroke="none" 
	d="
M359.749756,216.124573 
	C359.960907,216.020020 359.978333,216.509262 359.967346,216.753784 
	C359.956360,216.998291 359.481384,216.997040 359.243958,216.994934 
	C359.100311,216.680023 359.277649,216.425461 359.749756,216.124573 
z"/>
<path fill="#0CBCE6" opacity="1.000000" stroke="none" 
	d="
M308.000732,324.660156 
	C307.361572,324.543396 306.721893,324.094421 306.039734,323.325623 
	C306.442322,323.002808 306.887360,322.999847 307.666199,322.997833 
	C308.000092,323.441833 308.000183,323.884888 308.000732,324.660156 
z"/>
<path fill="#0CBCE6" opacity="1.000000" stroke="none" 
	d="
M304.969055,322.669067 
	C304.370148,322.539307 303.727539,322.089386 303.044861,321.317444 
	C303.644989,321.446625 304.285156,321.897797 304.969055,322.669067 
z"/>
</svg>